<svg width="595" height="240" viewBox="0 0 595 240" fill="none" xmlns="http://www.w3.org/2000/svg">
<g opacity="0.1">
<rect width="1.96296" height="240" fill="#B9C1D9"/>
<rect x="72.6304" width="1.96296" height="240" fill="#B9C1D9"/>
<rect x="145.261" width="1.96296" height="240" fill="#B9C1D9"/>
<rect x="217.888" width="1.96296" height="240" fill="#B9C1D9"/>
<rect x="290.52" width="1.96296" height="240" fill="#B9C1D9"/>
<rect x="363.149" width="1.96296" height="240" fill="#B9C1D9"/>
<rect x="435.78" width="1.96296" height="240" fill="#B9C1D9"/>
<rect x="508.408" width="1.96296" height="240" fill="#B9C1D9"/>
<rect x="581.035" y="238.709" width="1.29034" height="579.074" transform="rotate(90 581.035 238.709)" fill="#B9C1D9"/>
<rect x="581.035" y="190.967" width="1.29034" height="579.074" transform="rotate(90 581.035 190.967)" fill="#B9C1D9"/>
<rect x="581.035" y="143.226" width="1.29034" height="579.074" transform="rotate(90 581.035 143.226)" fill="#B9C1D9"/>
<rect x="581.035" y="95.4845" width="1.29034" height="579.074" transform="rotate(90 581.035 95.4845)" fill="#B9C1D9"/>
<rect x="581.035" y="48.0001" width="1.29034" height="579.074" transform="rotate(90 581.035 48.0001)" fill="#B9C1D9"/>
<rect x="581.036" width="1.29034" height="579.074" transform="rotate(90 581.036 0)" fill="#B9C1D9"/>
<rect x="581.036" width="1.96296" height="240" fill="#B9C1D9"/>
</g>
<rect x="429" y="75" width="8" height="54" rx="4" fill="#6EDCB5"/>
<rect x="432" y="67" width="2" height="80" rx="1" fill="#6EDCB5"/>
<rect x="493" y="124" width="8" height="54" rx="4" fill="#FF325F"/>
<rect x="496" y="116" width="2" height="80" rx="1" fill="#FF325F"/>
<rect x="317" y="71" width="8" height="54" rx="4" fill="#FF325F"/>
<rect x="320" y="63" width="2" height="80" rx="1" fill="#FF325F"/>
<rect x="413" y="62" width="8" height="54" rx="4" fill="#6EDCB5"/>
<rect x="416" y="54" width="2" height="80" rx="1" fill="#6EDCB5"/>
<rect x="477" y="111" width="8" height="54" rx="4" fill="#6EDCB5"/>
<rect x="480" y="103" width="2" height="80" rx="1" fill="#6EDCB5"/>
<rect x="109" y="87" width="8" height="54" rx="4" fill="#FF325F"/>
<rect x="112" y="79" width="2" height="80" rx="1" fill="#FF325F"/>
<rect x="77" y="68" width="8" height="54" rx="4" fill="#6EDCB5"/>
<rect x="80" y="60" width="2" height="80" rx="1" fill="#6EDCB5"/>
<rect x="93" y="53" width="8" height="54" rx="4" fill="#6EDCB5"/>
<rect x="96" y="45" width="2" height="124" rx="1" fill="#6EDCB5"/>
<rect x="29" y="89" width="8" height="54" rx="4" fill="#FF325F"/>
<rect x="32" y="81" width="2" height="103" rx="1" fill="#FF325F"/>
<rect x="205" y="108" width="8" height="54" rx="4" fill="#6EDCB5"/>
<rect x="208" y="100" width="2" height="80" rx="1" fill="#6EDCB5"/>
<rect x="269" y="73" width="8" height="40" rx="4" fill="#6EDCB5"/>
<rect x="272" y="53" width="2" height="80" rx="1" fill="#6EDCB5"/>
<rect x="253" y="88" width="8" height="32" rx="4" fill="#6EDCB5"/>
<rect x="256" y="28" width="2" height="120" rx="1" fill="#6EDCB5"/>
<rect x="349" y="82" width="8" height="27" rx="4" fill="#6EDCB5"/>
<rect x="352" y="78" width="2" height="72" rx="1" fill="#6EDCB5"/>
<rect x="445" y="73" width="8" height="27" rx="4" fill="#FF325F"/>
<rect x="448" y="69" width="2" height="72" rx="1" fill="#FF325F"/>
<rect x="509" y="122" width="8" height="27" rx="4" fill="#6EDCB5"/>
<rect x="512" y="118" width="2" height="72" rx="1" fill="#6EDCB5"/>
<rect x="365" y="85" width="8" height="27" rx="4" fill="#FF325F"/>
<rect x="368" y="81" width="2" height="55" rx="1" fill="#FF325F"/>
<rect x="461" y="76" width="8" height="27" rx="4" fill="#6EDCB5"/>
<rect x="464" y="72" width="2" height="55" rx="1" fill="#6EDCB5"/>
<rect x="525" y="125" width="8" height="27" rx="4" fill="#FF325F"/>
<rect x="528" y="121" width="2" height="55" rx="1" fill="#FF325F"/>
<rect x="189" y="116" width="8" height="27" rx="4" fill="#6EDCB5"/>
<rect x="192" y="112" width="2" height="55" rx="1" fill="#6EDCB5"/>
<rect x="301" y="65" width="8" height="27" rx="4" fill="#6EDCB5"/>
<rect x="304" y="61" width="2" height="55" rx="1" fill="#6EDCB5"/>
<rect x="61" y="116" width="8" height="27" rx="4" fill="#FF325F"/>
<rect x="64" y="95" width="2" height="55" rx="1" fill="#FF325F"/>
<rect x="381" y="127" width="8" height="36" rx="4" fill="#6EDCB5"/>
<rect x="384" y="111" width="2" height="55" rx="1" fill="#6EDCB5"/>
<rect x="397" y="125" width="8" height="20" rx="4" fill="#6EDCB5"/>
<rect x="400" y="118" width="2" height="46" rx="1" fill="#6EDCB5"/>
<rect x="333" y="108" width="8" height="20" rx="4" fill="#6EDCB5"/>
<rect x="336" y="101" width="2" height="46" rx="1" fill="#6EDCB5"/>
<rect x="541" y="97" width="8" height="20" rx="4" fill="#6EDCB5"/>
<rect x="544" y="90" width="2" height="46" rx="1" fill="#6EDCB5"/>
<rect x="557" y="91" width="8" height="20" rx="4" fill="#6EDCB5"/>
<rect x="560" y="68" width="2" height="46" rx="1" fill="#6EDCB5"/>
<rect x="125" y="100" width="8" height="20" rx="4" fill="#6EDCB5"/>
<rect x="128" y="93" width="2" height="46" rx="1" fill="#6EDCB5"/>
<rect x="285" y="66" width="8" height="20" rx="4" fill="#6EDCB5"/>
<rect x="288" y="59" width="2" height="46" rx="1" fill="#6EDCB5"/>
<rect x="237" y="84" width="8" height="16" rx="4" fill="#FF325F"/>
<rect x="240" y="78" width="2" height="55" rx="1" fill="#FF325F"/>
<rect x="173" y="128" width="8" height="16" rx="4" fill="#FF325F"/>
<rect x="176" y="122" width="2" height="55" rx="1" fill="#FF325F"/>
<rect x="157" y="139" width="8" height="16" rx="4" fill="#FF325F"/>
<rect x="160" y="130" width="2" height="70" rx="1" fill="#FF325F"/>
<rect x="13" y="128" width="8" height="16" rx="4" fill="#6EDCB5"/>
<rect x="16" y="106" width="2" height="98" rx="1" fill="#6EDCB5"/>
<rect x="221" y="92" width="8" height="16" rx="4" fill="#FF325F"/>
<rect x="224" y="86" width="2" height="40" rx="1" fill="#FF325F"/>
<rect x="45" y="94" width="8" height="16" rx="4" fill="#6EDCB5"/>
<rect x="48" y="88" width="2" height="40" rx="1" fill="#6EDCB5"/>
<rect x="141" y="145" width="8" height="16" rx="4" fill="#6EDCB5"/>
<rect x="144" y="139" width="2" height="40" rx="1" fill="#6EDCB5"/>
<line x1="0.5" y1="32.5" x2="594.5" y2="32.5" stroke="#6EDCB5" stroke-linecap="round" stroke-dasharray="8 8"/>
</svg>
